<svg xmlns="http://www.w3.org/2000/svg" width="120" height="95" fill="none">
  <path
    fill="currentColor"
    d="M106.987 33.65c1.992-.065 3.607 1.472 3.607 3.434 0 10.82-5.443 20.723 6.672 31.208 1.088.941 2.172 2.195 2.575 3.82.465 1.874-.119 3.62-1.22 4.936-.971 1.161-2.293 1.95-3.508 2.511-1.269.586-2.743 1.07-4.32 1.479-6.219 1.617-15.71 2.503-25.676 2.936-1.823.08-3.672.144-5.53.195 1.11 1.686 1.953 2.256 2.444 2.502.352.176.72.286 1.252.398.384.08 1.414.254 2.232.517a3.581 3.581 0 0 1-2.2 6.816c-.345-.112-.563-.127-1.51-.326-.798-.168-1.842-.432-2.98-1.002-2.362-1.183-4.475-3.342-6.492-7.117a3.6 3.6 0 0 1-.423-1.655 442 442 0 0 1-16.766-.18c-8.957-.27-16.53-.804-19.861-1.48a3.427 3.427 0 0 1-2.668-4.196c.465-1.922 2.413-3.162 4.35-2.768 2.63.535 9.585 1.067 18.64 1.341 8.933.27 19.59.283 29.433-.144 9.93-.432 18.738-1.302 24.132-2.704 1.151-.3 2.065-.604 2.757-.896-14.624-13.097-8.547-28.603-8.547-35.955 0-1.961 1.615-3.605 3.607-3.67m-81.77 52.684a3.58 3.58 0 0 1 4.935-1.132c.333.209 1.097.454 2.415.594 1.288.138 2.454.13 3.703.18a3.58 3.58 0 0 1-.292 7.156c-.853-.035-2.574-.044-4.171-.214-1.569-.168-3.691-.54-5.46-1.648a3.58 3.58 0 0 1-1.13-4.936m-9.495-14.285a3.582 3.582 0 0 1 6.353 3.308c-.637 1.223-1.572 2.19-2.25 2.836-.358.34-.717.657-1.001.908-.31.274-.513.455-.67.608a3.58 3.58 0 1 1-4.998-5.127c.304-.297.647-.6.921-.843.3-.265.561-.497.81-.734.535-.509.761-.814.835-.956m78.747-8.813a3.58 3.58 0 1 1 6.95 1.724c-.09.364-.262 1.145-.441 1.764a3.581 3.581 0 0 1-6.88-1.992c.134-.459.192-.773.371-1.496M8.138 54.738a3.581 3.581 0 0 1 3.526 6.233c-1.114.63-2.557 1.102-3.572 1.41-1.323.402-1.888.53-2.297.67a3.581 3.581 0 0 1-2.329-6.771c.338-.116.801-.247 1.182-.355.43-.121.89-.251 1.362-.395 1.03-.313 1.778-.594 2.128-.792M.012 38.833a3.58 3.58 0 0 1 3.86-3.279c2.036.166 4.075.253 6.048.172a3.581 3.581 0 0 1 .294 7.156c-2.369.097-4.722-.012-6.924-.191a3.58 3.58 0 0 1-3.278-3.858m91.823-22.677a3.58 3.58 0 0 1 4.758 1.732c1.77 3.796 2.227 7.587 1.948 11.546a3.58 3.58 0 0 1-7.143-.502c.213-3.03-.147-5.556-1.295-8.018a3.58 3.58 0 0 1 1.732-4.758m-81.321 2.956a3.58 3.58 0 0 1 3.886-3.247c.646.058 1.983.288 3.385.694 1.305.378 3.293 1.08 4.746 2.361a3.58 3.58 0 0 1-4.739 5.37c-.047-.042-.237-.181-.647-.367a10 10 0 0 0-1.353-.486 16 16 0 0 0-1.844-.414l-.186-.026a3.58 3.58 0 0 1-3.248-3.885m62.71-9.725a3.58 3.58 0 0 1 5.054.326c1.645 1.871 3.992 4.426 5.146 7.692a3.581 3.581 0 1 1-6.752 2.386c-.606-1.714-1.894-3.214-3.772-5.35a3.58 3.58 0 0 1 .324-5.054m-46.5-2.035a3.58 3.58 0 0 1 4.401-2.504c.776.213 2.094.577 3.465 1.087 1.313.49 2.979 1.221 4.312 2.29a3.581 3.581 0 0 1-4.478 5.587c-.428-.342-1.231-.756-2.333-1.166-1.044-.389-2.088-.68-2.863-.893a3.58 3.58 0 0 1-2.504-4.4M54.734.62a3.58 3.58 0 0 1 4.974.948c1.22 1.794 3.225 4.288 4.529 7.325a3.58 3.58 0 0 1-6.581 2.824c-.943-2.196-2.208-3.677-3.87-6.123A3.58 3.58 0 0 1 54.733.62"
  />
</svg>
