<svg xmlns="http://www.w3.org/2000/svg" width="16" height="16" fill="none">
  <style>
    .bg { fill: #ffffff; }
    .hog { fill: #333; }

    @media (prefers-color-scheme: dark) {
      .bg { fill: #1a1a1a; }
      .hog { fill: #ffffff; }
    }
  </style>
  <path class="bg" d="M0 0h16v16H0z"/>
  <path class="hog" d="M12.699 6.365a.344.344 0 0 1 .36.343c0 1.082-.544 2.073.668 3.121.109.094.217.22.258.382a.55.55 0 0 1-.122.494 1 1 0 0 1-.352.251 2.6 2.6 0 0 1-.432.148c-.622.161-1.57.25-2.567.294q-.274.01-.553.017c.112.17.195.228.244.252a.5.5 0 0 0 .125.04c.039.008.142.026.224.052a.358.358 0 0 1-.22.682c-.035-.011-.057-.014-.151-.034a1.2 1.2 0 0 1-.298-.1c-.236-.117-.448-.334-.65-.711a.36.36 0 0 1-.04-.167c-.585.005-1.16-.001-1.678-.017-.896-.027-1.653-.08-1.986-.148a.34.34 0 0 1-.267-.419.374.374 0 0 1 .435-.277c.263.053.958.107 1.864.134.893.027 1.959.028 2.943-.014.993-.043 1.874-.13 2.413-.27q.172-.046.275-.092c-1.461-1.31-.854-2.86-.854-3.594 0-.196.162-.36.36-.367m-8.177 5.268a.36.36 0 0 1 .493-.112c.033.02.11.044.242.058.129.014.245.014.37.019a.358.358 0 0 1-.03.716c-.084-.004-.256-.005-.416-.022a1.3 1.3 0 0 1-.546-.165.36.36 0 0 1-.113-.494m-.95-1.428a.358.358 0 1 1 .635.33c-.063.123-.157.22-.224.285-.036.034-.073.065-.101.09l-.066.06a.359.359 0 1 1-.5-.512c.03-.03.064-.06.091-.084l.082-.073a.5.5 0 0 0 .083-.096m8.31-1.142a.36.36 0 0 1 .26.433c-.01.037-.026.114-.044.176a.359.359 0 1 1-.688-.2c.014-.045.019-.076.037-.149a.36.36 0 0 1 .434-.26m-9.068-.59a.359.359 0 0 1 .352.624c-.111.063-.256.11-.357.142-.132.04-.189.052-.23.066a.358.358 0 1 1-.232-.677l.118-.035.136-.04c.103-.031.178-.06.213-.08m-.427-1.917c.204.016.408.025.605.016a.359.359 0 0 1 .03.716 6 6 0 0 1-.693-.02.358.358 0 1 1 .058-.712m8.797-1.94a.36.36 0 0 1 .475.173c.177.38.223.759.196 1.155a.359.359 0 0 1-.715-.051 1.56 1.56 0 0 0-.13-.802.36.36 0 0 1 .174-.476m-7.744-.03c.064.006.198.029.339.07.13.037.329.108.474.236a.359.359 0 0 1-.473.537.3.3 0 0 0-.066-.037 1.6 1.6 0 0 0-.32-.09L3.377 5.3a.359.359 0 0 1 .064-.714m5.882-.647a.36.36 0 0 1 .505.032c.165.187.4.443.515.77a.358.358 0 1 1-.675.238c-.06-.171-.19-.321-.377-.534a.36.36 0 0 1 .032-.506m-4.21-.454c.078.02.21.058.347.109.131.049.298.122.43.228a.358.358 0 1 1-.446.56 1 1 0 0 0-.234-.117 3 3 0 0 0-.286-.09.358.358 0 1 1 .19-.69m2.362-.423a.36.36 0 0 1 .497.094c.122.18.323.43.453.733a.359.359 0 0 1-.658.283c-.094-.22-.222-.368-.388-.612a.36.36 0 0 1 .096-.498"/>
</svg>
